<svg xmlns="http://www.w3.org/2000/svg" xmlns:xlink="http://www.w3.org/1999/xlink" width="270.372" height="283.036" viewBox="0 0 270.372 283.036">
  <defs>
    <linearGradient id="linear-gradient" x1="0.29" y1="0.983" x2="1.064" y2="-0.177" gradientUnits="objectBoundingBox">
      <stop offset="0" stop-color="#d500f9"/>
      <stop offset="0.99" stop-color="#2979ff"/>
    </linearGradient>
    <linearGradient id="linear-gradient-2" x1="0.197" y1="0.963" x2="0.735" y2="-0.133" xlink:href="#linear-gradient"/>
    <linearGradient id="linear-gradient-3" x1="0.265" y1="0.854" x2="0.772" y2="0.09" gradientUnits="objectBoundingBox">
      <stop offset="0" stop-color="#ea80fc"/>
      <stop offset="0.99" stop-color="#40c4ff"/>
    </linearGradient>
  </defs>
  <g id="组_2618"  transform="matrix(-0.966, -0.259, 0.259, -0.966, 39.982, 830.975)">
    <g id="组_2368"  transform="translate(-27.353 574.597)" style="isolation: isolate">
      <path id="路径_1549"  d="M146.029,687.088c.147-.518.306-1.034.441-1.553.163-.623.3-1.247.447-1.872.12-.5.251-1.008.36-1.514.138-.642.249-1.285.371-1.926.092-.492.2-.98.281-1.472.114-.672.2-1.344.293-2.016.065-.463.144-.927.2-1.39.082-.681.136-1.361.2-2.04.042-.457.1-.914.131-1.371.053-.738.076-1.477.105-2.215.016-.4.048-.793.056-1.19q.037-1.7-.012-3.4c-.447-15.439-6.3-27.992-15.716-36.446l-22.393-20.1c9.418,8.454,15.268,21.008,15.716,36.447q.048,1.693.01,3.4c-.009.4-.04.8-.056,1.2-.03.734-.052,1.468-.105,2.2-.033.461-.091.923-.133,1.384-.062.675-.114,1.351-.2,2.026-.056.467-.136.933-.2,1.4-.094.669-.179,1.338-.291,2.007-.082.49-.189.98-.281,1.471-.121.643-.232,1.286-.371,1.926-.11.509-.242,1.015-.362,1.523-.146.621-.283,1.244-.446,1.863-.137.523-.3,1.041-.443,1.562-.17.6-.332,1.205-.516,1.805-.162.526-.346,1.048-.519,1.573-.193.588-.378,1.177-.584,1.762q-.675,1.9-1.445,3.786c-.151.369-.314.736-.47,1.1-.378.9-.767,1.786-1.175,2.672q-.335.731-.686,1.456-.415.861-.849,1.717-.394.778-.806,1.551-.45.848-.918,1.69c-.3.541-.606,1.078-.917,1.613q-.387.662-.781,1.319-.513.846-1.044,1.684c-.271.431-.544.861-.822,1.287-.232.355-.473.7-.709,1.056-1.035,1.541-2.1,3.064-3.227,4.55-.072.1-.147.186-.219.281-1.038,1.364-2.121,2.7-3.23,4.013-.212.251-.421.506-.636.756q-1.689,1.962-3.482,3.838c-.239.252-.484.5-.727.747-1.22,1.253-2.464,2.482-3.747,3.67-.048.045-.094.091-.143.136-1.368,1.262-2.781,2.471-4.216,3.652-.329.27-.655.545-.986.81-.386.309-.776.611-1.165.914q-.807.625-1.625,1.237-.6.445-1.208.881c-.515.37-1.035.734-1.559,1.094s-1.038.709-1.563,1.055q-.75.5-1.511.976-.8.5-1.6.99c-.463.281-.93.555-1.4.826-.842.489-1.691.959-2.548,1.419-.384.206-.766.418-1.152.619-1.22.632-2.448,1.243-3.694,1.814l-.04.02c-1.466.672-2.954,1.285-4.454,1.869-.373.147-.75.29-1.126.431-1.51.564-3.031,1.1-4.569,1.57-1.228.375-2.448.706-3.661,1.012-.389.1-.774.18-1.162.271-.828.195-1.652.379-2.471.542-.446.088-.887.166-1.329.245q-1.151.2-2.288.368c-.443.063-.884.125-1.324.18-.789.1-1.57.173-2.349.241-.385.033-.773.074-1.155.1q-1.544.106-3.064.133c-.12,0-.241.011-.36.013-1.128.013-2.244-.01-3.348-.059-.339-.016-.673-.046-1.009-.066-.728-.046-1.45-.1-2.167-.173-.794-.081-1.576-.19-2.356-.3-.443-.065-.89-.117-1.328-.192-.931-.16-1.846-.353-2.752-.559-.273-.062-.554-.108-.825-.174s-.558-.157-.839-.231c-.758-.2-1.513-.4-2.254-.634-.381-.12-.751-.258-1.128-.386-.636-.216-1.272-.433-1.893-.673-.311-.121-.619-.252-.926-.379q-.949-.389-1.876-.818c-.32-.148-.639-.3-.955-.454q-1.01-.5-1.99-1.038c-.193-.107-.391-.206-.583-.317q-1.257-.718-2.458-1.513c-.172-.114-.339-.235-.509-.352q-.954-.649-1.87-1.344c-.216-.164-.433-.329-.645-.5-.743-.585-1.474-1.185-2.177-1.817l22.395,20.1q.824.74,1.686,1.439c.16.13.329.249.49.376.213.169.43.333.645.5q.917.7,1.87,1.345c.172.115.337.237.51.35.069.046.136.1.206.143.734.479,1.487.933,2.252,1.371.19.11.389.209.583.317.446.247.89.5,1.345.732.212.108.433.2.646.307.314.154.633.3.952.451.617.287,1.243.558,1.876.819.309.127.614.257.927.378.141.055.277.118.418.172.483.182.983.336,1.475.5.376.128.747.265,1.128.385.744.234,1.5.438,2.267.639.275.072.545.159.825.226.032.009.062.019.094.026.244.059.5.1.744.151.9.2,1.812.4,2.738.557.441.075.891.128,1.335.193.779.112,1.559.221,2.352.3.163.017.32.048.484.062.555.052,1.12.077,1.681.111.337.022.67.052,1.011.066,1.1.049,2.219.073,3.348.059.118,0,.241-.01.36-.013q1.518-.028,3.064-.131c.382-.026.767-.068,1.151-.1.781-.066,1.564-.143,2.355-.241.438-.053.88-.115,1.321-.179q1.14-.164,2.29-.369c.443-.078.884-.157,1.329-.245.819-.161,1.644-.346,2.47-.541.388-.091.774-.173,1.164-.271,1.213-.306,2.432-.639,3.659-1.014,1.54-.47,3.06-1.006,4.571-1.57q.564-.21,1.126-.43c1.5-.585,2.988-1.2,4.454-1.87h0l.037-.017c1.244-.572,2.473-1.182,3.693-1.814.389-.2.771-.414,1.159-.622q1.278-.688,2.539-1.414c.211-.123.428-.232.637-.356.26-.153.51-.319.769-.474q.8-.484,1.593-.986.766-.482,1.521-.98.783-.517,1.557-1.053c.262-.18.532-.35.793-.535s.51-.375.767-.559q.608-.437,1.208-.882.82-.61,1.625-1.237c.389-.3.779-.6,1.164-.913.174-.14.355-.274.529-.415.156-.127.3-.268.459-.4,1.435-1.181,2.846-2.389,4.215-3.651l.032-.027c.04-.036.076-.077.117-.112,1.28-1.187,2.523-2.415,3.742-3.665.146-.15.3-.287.447-.438.1-.1.185-.208.281-.308q1.789-1.875,3.479-3.837c.082-.094.172-.183.252-.278.136-.157.257-.326.389-.484,1.109-1.311,2.189-2.644,3.225-4.007.056-.074.118-.141.173-.215.017-.022.03-.045.048-.066,1.123-1.487,2.19-3.008,3.224-4.548.111-.163.235-.319.345-.484.127-.19.245-.388.371-.58.277-.424.546-.849.816-1.277q.532-.841,1.047-1.693.4-.653.779-1.314c.161-.275.332-.548.489-.825s.286-.529.431-.793q.469-.839.917-1.685.413-.774.809-1.556.433-.854.846-1.714c.138-.287.288-.57.424-.856.092-.2.172-.4.264-.6.408-.887.8-1.778,1.175-2.673.156-.368.319-.734.469-1.1.51-1.254,1-2.516,1.445-3.785l.026-.065c.2-.567.375-1.138.562-1.706.172-.522.355-1.043.516-1.566C145.7,688.3,145.859,687.692,146.029,687.088Z" transform="translate(43.199 -559.58)" fill="url(#linear-gradient)"/>
      <path id="路径_1550"  d="M104.735,596.951c.277-.059.554-.114.832-.17,1.489-.3,2.973-.584,4.445-.82l.118-.017c1.45-.231,2.889-.421,4.321-.587.26-.03.519-.063.779-.091q2.1-.229,4.177-.363c.273-.017.544-.032.815-.046,1.419-.081,2.83-.138,4.226-.156.068,0,.134,0,.2,0,1.361-.013,2.708.01,4.046.056.239.009.482.014.721.025q1.994.087,3.954.261c.352.03.7.065,1.053.1q.852.086,1.694.187c.4.048.79.1,1.182.151q.841.115,1.675.247c.382.059.766.12,1.146.185.572.1,1.141.2,1.707.314.355.068.711.134,1.064.206.629.131,1.252.272,1.872.418.271.062.544.12.812.185,1.373.335,2.724.711,4.059,1.115.2.06.4.117.6.179q1.936.6,3.815,1.3c.231.085.461.17.689.258,1.115.427,2.218.872,3.3,1.348.137.061.271.126.408.186q1.5.672,2.963,1.409c.2.1.4.2.6.3q1.451.748,2.861,1.557c.2.114.4.234.594.35q1.2.705,2.362,1.453c.2.13.4.255.6.386q1.306.858,2.571,1.773c.169.123.333.251.5.375q1.045.772,2.058,1.582c.222.177.444.353.663.534.781.642,1.554,1.293,2.307,1.969l.009.007,0,0h0l-22.395-20.1c-.756-.679-1.533-1.334-2.317-1.978-.094-.076-.182-.159-.275-.234-.125-.1-.258-.195-.384-.3q-1.014-.811-2.058-1.582c-.17-.125-.336-.254-.506-.378q-1.263-.915-2.569-1.774c-.069-.045-.136-.1-.2-.14-.13-.085-.267-.16-.4-.245q-1.164-.748-2.363-1.453c-.2-.117-.4-.236-.594-.352q-1.41-.809-2.862-1.557c-.072-.036-.14-.078-.211-.114-.125-.065-.257-.12-.382-.182q-1.464-.737-2.97-1.412c-.134-.061-.267-.126-.4-.185-1.083-.476-2.184-.921-3.3-1.347-.12-.046-.235-.1-.356-.146s-.228-.075-.34-.117q-1.877-.7-3.809-1.3c-.2-.062-.4-.12-.6-.18-1.334-.4-2.683-.779-4.054-1.113-.032-.007-.063-.019-.1-.026-.241-.059-.489-.107-.731-.163-.617-.143-1.236-.286-1.86-.414-.352-.074-.708-.138-1.063-.206-.568-.11-1.135-.218-1.709-.316-.381-.065-.763-.124-1.146-.185-.557-.086-1.113-.17-1.674-.245-.394-.053-.787-.1-1.184-.151q-.843-.1-1.7-.187c-.236-.025-.469-.056-.707-.078-.112-.01-.228-.013-.342-.023q-1.959-.173-3.956-.26c-.239-.012-.482-.016-.721-.025-1.338-.046-2.685-.069-4.044-.056h-.2c-1.4.017-2.806.075-4.225.156-.273.016-.544.03-.816.048q-2.072.136-4.174.362c-.261.029-.523.062-.786.092-1.43.166-2.868.355-4.317.585-.039.007-.079.011-.118.019-1.471.235-2.953.516-4.441.819-.28.058-.559.112-.839.172q-2.165.458-4.352,1.015c-.277.071-.555.146-.832.218-1.521.4-3.045.82-4.579,1.289-1.6.489-3.181,1.021-4.758,1.575-.466.164-.927.336-1.39.5q-1.748.638-3.476,1.326c-.459.183-.917.362-1.374.551-1.537.633-3.068,1.289-4.582,1.983l-.025.012-.012,0-.072.036c-1.909.877-3.794,1.811-5.664,2.78-.6.31-1.185.636-1.778.955q-1.972,1.058-3.912,2.179c-.324.188-.659.356-.98.547-.4.234-.781.489-1.177.727q-1.235.746-2.457,1.52-1.172.742-2.331,1.505-1.209.8-2.4,1.621c-.405.278-.82.541-1.223.825s-.78.575-1.175.858q-.934.67-1.859,1.358-1.257.934-2.494,1.9c-.6.467-1.2.933-1.8,1.41-.27.216-.546.421-.815.64-.623.5-1.23,1.031-1.846,1.547-.457.384-.92.763-1.373,1.152q-1.691,1.453-3.341,2.96c-.2.182-.405.356-.6.539l-.076.069q-1.877,1.73-3.691,3.527c-.365.359-.718.727-1.079,1.089-.619.621-1.244,1.237-1.853,1.869-.251.261-.492.529-.74.792-.422.446-.839.9-1.256,1.345q-1.185,1.278-2.34,2.582c-.4.453-.8.905-1.2,1.363-.211.242-.428.479-.637.722-.616.721-1.213,1.456-1.814,2.187-.3.369-.616.732-.916,1.1q-1.579,1.953-3.1,3.948c-.036.048-.069.1-.105.144-.229.3-.447.614-.673.918q-1.233,1.657-2.422,3.338c-.356.508-.7,1.022-1.051,1.533-.435.636-.882,1.266-1.308,1.908-.193.29-.371.587-.561.877-.427.654-.843,1.312-1.26,1.971q-.818,1.293-1.609,2.6-.608,1.006-1.2,2.021c-.249.428-.513.849-.758,1.279-.228.4-.434.807-.657,1.21q-.72,1.291-1.412,2.594-.632,1.19-1.24,2.386-.666,1.313-1.3,2.637c-.213.445-.446.882-.656,1.328-.143.306-.264.616-.4.921-.629,1.361-1.227,2.732-1.808,4.108-.238.564-.489,1.126-.719,1.693-.784,1.929-1.531,3.867-2.22,5.819-.013.035-.029.071-.042.105-.307.871-.577,1.748-.864,2.621-.264.8-.544,1.595-.792,2.4-.285.931-.535,1.867-.8,2.8-.223.792-.466,1.58-.673,2.375-.245.933-.45,1.87-.672,2.806-.189.8-.4,1.6-.571,2.4-.2.937-.363,1.876-.541,2.815-.153.8-.326,1.6-.461,2.409-.166.985-.29,1.971-.43,2.957-.107.76-.236,1.517-.327,2.277-.13,1.076-.215,2.151-.313,3.227-.061.671-.144,1.341-.193,2.011-.085,1.192-.124,2.383-.17,3.576-.02.554-.065,1.107-.078,1.66q-.058,2.615.017,5.221c.688,23.749,9.685,43.054,24.168,56.053l22.395,20.1c-14.483-13-23.482-32.306-24.17-56.053q-.074-2.606-.016-5.222c.013-.577.059-1.155.082-1.733.045-1.167.082-2.333.166-3.5.052-.719.141-1.439.208-2.157.094-1.028.174-2.055.3-3.081.094-.779.225-1.557.336-2.336.137-.966.258-1.933.421-2.9.134-.8.307-1.6.459-2.4.179-.94.342-1.882.544-2.82.174-.808.384-1.612.575-2.418.219-.93.424-1.86.666-2.787.211-.8.454-1.6.681-2.4.262-.928.51-1.857.794-2.781.247-.8.526-1.593.789-2.389.3-.913.587-1.827.907-2.735.691-1.951,1.438-3.889,2.222-5.818.231-.568.482-1.131.719-1.7.581-1.376,1.179-2.745,1.808-4.108q.519-1.127,1.06-2.245.638-1.323,1.3-2.639.608-1.2,1.24-2.385.692-1.306,1.414-2.6.692-1.244,1.409-2.479c.4-.679.794-1.355,1.2-2.029q.792-1.306,1.611-2.6c.415-.658.831-1.315,1.257-1.967.613-.937,1.24-1.866,1.873-2.79.349-.509.692-1.022,1.047-1.527q1.185-1.683,2.419-3.334c.228-.307.447-.62.678-.926q1.564-2.07,3.2-4.091c.3-.37.61-.734.914-1.1q1.209-1.466,2.451-2.911c.4-.457.8-.91,1.2-1.363q1.155-1.3,2.339-2.581.625-.677,1.259-1.348,1.274-1.343,2.585-2.653c.362-.365.719-.734,1.086-1.1q1.856-1.827,3.768-3.594c.193-.179.4-.35.59-.528q1.655-1.51,3.352-2.972c.453-.389.914-.767,1.371-1.151.881-.738,1.768-1.472,2.665-2.19.593-.474,1.192-.94,1.792-1.406q1.239-.962,2.5-1.9.926-.688,1.86-1.36,1.19-.852,2.393-1.68t2.4-1.622q1.157-.763,2.33-1.5,1.224-.774,2.46-1.521,1.071-.647,2.153-1.272c1.295-.751,2.6-1.475,3.919-2.182.59-.317,1.177-.643,1.771-.952,1.876-.972,3.766-1.909,5.681-2.789l.066-.032.042-.019c1.508-.692,3.034-1.344,4.565-1.975.459-.189.921-.369,1.381-.554q1.724-.686,3.465-1.322c.467-.17.933-.343,1.4-.508,1.576-.554,3.159-1.086,4.755-1.573,1.533-.469,3.058-.891,4.576-1.289.278-.073.557-.148.835-.219Q102.569,597.41,104.735,596.951Z" transform="translate(27.353 -574.597)" fill="url(#linear-gradient-2)"/>
      <g id="组_2367"  transform="translate(22.394 20.095)">
        <path id="路径_1551"  d="M88.107,593.316C144.786,575.987,192.22,607.25,193.835,663S150.643,778.23,93.962,795.559-10.164,781.628-11.779,725.864,31.415,610.649,88.107,593.316ZM92.938,760.2c36.868-11.271,66-49.943,64.947-86.207S126,617.4,89.13,628.675s-66.009,49.947-64.96,86.2,31.9,56.6,68.768,45.326" transform="translate(11.821 -588.535)" fill="url(#linear-gradient-3)"/>
      </g>
    </g>
  </g>
</svg>
