<svg xmlns="http://www.w3.org/2000/svg" xmlns:xlink="http://www.w3.org/1999/xlink" width="737" height="429.548" viewBox="0 0 737 429.548">
  <defs>
    <filter id="路径_209" x="0" y="0" width="737" height="429.548" filterUnits="userSpaceOnUse">
      <feOffset dx="4" dy="2" />
      <feGaussianBlur stdDeviation="2" result="blur"/>
      <feFlood flood-color="#b3bfd6"/>
      <feComposite operator="in" in2="blur"/>
      <feComposite in="SourceGraphic"/>
    </filter>
  </defs>
  <g transform="matrix(1, 0, 0, 1, 0, 0)" filter="url(#路径_209)">
    <path id="路径_209-2"  d="M196.72,417.536c-21.556-28.522,3.917-65.125-.562-97.572-9.581-22.293-28.727-40.737-16.785-67.642-6.111-25.743-48.165-25.109-57.5-48.529-5.215-10.811-20.744-28.62-11.152-7.774-22.691-20.645-21.511-50.371-33.339-75.651-7.041-22.524-42.9-31.285-49.98-28.135-9.455,5.375-24.855,29.152-12.416,7.132-17.939-4.961-10.036-19.1-10.165-20.3C-9.856,71.8,15.318,72.591,1.82,62.934,23.1,43.458,54.8,63.34,80.708,59.245c22.342,2.073,47.656,14.42,66.036,2.881-11.862-10.4,10.12-29.877,2.532-7.918,5.379,13.71,19.359,11.315,23.1,8.4-2.357,16.626-46.7,34.083-9.877,44.472,10.1,16.068,23.872,12.993,17.2-6.441,2.608-27.664,23.276-1.222,34.235,1.822,17.738,18.079,2.209,23.117-11.463,27.945,10.594,1.329,12.352,19.681-1.594,14.318-17.028,9.049-23.629,38.216-29.471,46.51-17.051-32.025-51.767,30.427-17.51,21.826,10.3-11.892.425,20.649,14.815,12.1-.376,30.644,35.521.292,51.9,19.047,17.305,10.032,20.759,26.931,41.211,30.777,12.727,22.881-10.9,48.154-25.519,66.055-12.951,19.529-32.139,35.692-37.1,60.1-6.992,6.419,12.879,17.309-2.486,16.4ZM60.738,98.474,60.2,97.7Zm125.22,303.29.364.137Zm454.557-33.555c-16.155-16.375-39.826-23.807-58.945-15.529-22.046-25.671,15.707-54.14,39.059-53.662,9.459,12.4,5.728,11.084,12.26-.957,14.284,18.611,36.011,51.635,7.626,70.147Zm-17.9-8.9.611-.027Zm-242.3-18.9c-16.937-26.411-7.493-61.409-22.908-88.018-22.023-2.786-54.451,2.3-50.522-32.371-4.775-31.718,41.454-75.154,64.377-39.655,12.264,3.374,45.455,9.645,41.625-11.729-17.6.33-20.3-16.159.368-14.227,30.2-2.308-11.919-31.528-15.791-2.771-7.33,5.751-11.1,22.87-17.066.922-11.627-13.976-14.284-4.415-5.925,6.263-16.8-21.462-30.666-8.913-39.9,8.119-22.137-4.016-7.747-21.761,3.921-24.992-12.826-17.127,23.69-14.766,23.488-35.3.528,30.219,54.9-19.533,27.618-14.584,4.172-20.725-7.69-18.744-10.575-.129-1.484,31.41-42.627-2.08-13.483-13.748,12.872-19.552,44.844-33.392,57.412-6.2-24.122-8.324-1.18,20.551,6.195-.273,11.756-13.957,51.377,4.308,53.942-20.695,17.07-7.717-.2,38.342,12.872,13.779,12.264,8.514-14.208-20.38,3.849-11.122,15.339-6.5,14.834,17.89,12.082-3.822,11.486-15.646,54.759-30.256,60.771-8.313-23.139,10.981,26.787-3.485,32.595,12.048C636.63,47.625,664.138,61,696.588,60.44,717.754,59.76,742.336,83.484,707.9,79.8c-9.581,15.066-37.708,14.492-37.469,38.254-18.383,7.091,3.215-27.159,6.385-29.216-16.106,10.7-56.224.972-52.117,29.334,22.46,18.19-29.232,32.28-21.746,55.351,3.162-19.685-26.764-17.1-12.693-.827,3.617,23.06-12.636,35.692-29.615,42.312,8.8,18.8.676,30.131-13.707,18.687,3.587,15.567,6.643,32.822-.74,8.351.448-26.081-31.065-47.5-40.3-12.891-12.572,26.358-12.025-38.736-39.465-33.031-9.379,2.107-34.474-19.047-19.776,3.264,42.107,1.089-25.474,56.622-21.777,11.961-2.019-11.991-21.632-29.285-9.444-6.821.3,27.679,45.937,32.834,17.248,55.76-15.047,21.42-10.947,46.313-27.406,68.017A23.707,23.707,0,0,1,380.313,340.4Zm69-173.063c8.818-13.566-7.869-46.992-10.427-18.672C440.613,155.449,443.088,163.326,449.313,167.338ZM419.258,94.086l-1.108-1.112Zm99.773-48.605-.539.091Zm-86.37,273.963c-14.754-15.912,23.675-36.36,7.094-8.837C438.787,313.686,437.982,321.76,432.661,319.444Zm215.3-27.527c-16.482-.065-54.4-33.4-19.294-19.294C637.927,275.1,646.677,281.79,647.964,291.917Zm23.227-2.934.228-.175Zm-91.248-2.228h0ZM663.9,286.7l.516-.235Zm-63.8-.884.391.008Zm62.464-2.19.141-.14Zm-76.55-5.231c-5.656-12.371,12.944-24.392,6.134-3.83C594.811,280.992,585.458,265.969,586.012,278.4Zm-30.359-.581c-9.892-5.72-20.831-38.79-4.05-15.707C553.493,265.669,564.247,275.731,555.653,277.815Zm21.378-4.65c-30.1-3.056,20.084-40.866,6.024-7.759C582.508,268.7,580.44,272.22,577.031,273.165Zm31.8-7.808.862,0Zm-12.807-26.271.456-.361Zm-2.338-1.674.235-.038ZM182.136,211.779c-22.342-11.68,9.679-3.01.767-.03Zm-2.054-11.843h0ZM619.136,176.2c-9.019-4.213,20.881-30.116,11.38-6.533C627.814,173.7,622.4,172.925,619.136,176.2Zm16.083-36.736c-8.947-14.409,7.007-27.565.148-5.481ZM329.9,127.227c7.546-11.038-3.006-36.284,11.08-12.2C348.658,123.731,336.242,126.517,329.9,127.227Zm331.6-.406.376-.068Zm-333.8-25.55.486-1.07ZM251.959,94.15c-29.911-10.7-6.1-45.979-30.75-58.057-9.174-5.891-31.889-1.568-19.894-8.727-12.15-7.018,24.335-22.4,37.882-18.133,16.436-6.088,38.554-15.863,53.939-2.513-31.957,4.077,8.2,4.073,20.881,4.806-21.177,3.143-8.9,34.929-23.766,36.292,14.462,11.786-14.7-.288,2,12.974-16.516,5.128-37.461,13.657-40.3,33.358ZM273.638,10.1l-.326-.027ZM254.746,5.264l-.482-.011Zm19.681-1.59-.543.133Zm-70.325,83c-16.083.493-24.312-10.123-11.539-20-4.521-13.369-52.842-10.651-23.439-24.24,17.332-.368,52.584,27.531,34.375,33.179-1.385,6.813-.121,10.2.6,11.057ZM188.49,65.906h0Zm188.026-.262.4-.14ZM108.368,63.5c-11.558-2.741,8.449-14.417-9.6-9.391,1.074-25.743,59.416,13.357,15.551,7.721l-5.948,1.67Zm22.278-3.435-.972-1.165Zm322.922-3.541c-20.9-18.934,44.832-29.213,9.588-17.4C446.12,38.743,465.46,58.041,453.568,56.526Zm-319.787-.862h0ZM87.373,53.091c-10.275-21.071,31.114-4.278,1.59-.63l-1.583.626-.008,0Zm51.54-10.8-.547,0ZM599.346,48l.448.076Zm6.252.156.414-.14ZM301.211,41.184l1.366-.292Zm-194.168-.748c5.124-6.8-15.035-6.043,6.449-7.2C133.284,33.262,114.145,40.3,107.043,40.436Zm45.542-.455c-19.047-20.372,44.859,2.593,11.953.019l-6.138-.588-5.815.569ZM303.2,37.49l.865-.767Zm-176.054-.178h0Zm48.222-4.077c-8.218.342-26.282-4.24-6.7-6.536-16.922.7-32.022-19.674-5.557-9.994,17.654.869,18.577-7.167.9-2.585-20.327-9.087,64.586-18.007,40.038-1.48-12.223,4.335-20.2,12.223-28.681,20.6ZM171.348,22.11l-1.5-.084Zm-66.807,8.005h0ZM154.548,27.5l-1.465.763ZM529.1,13.022l.725-.171Zm-69.612-1.97.448.046Z" transform="translate(1.94 3.96)" fill="#f7f8fa"/>
  </g>
</svg>
