<svg xmlns="http://www.w3.org/2000/svg" xmlns:xlink="http://www.w3.org/1999/xlink" width="192.919" height="175.229" viewBox="0 0 192.919 175.229">
  <defs>
    <linearGradient id="linear-gradient" y1="0.5" x2="1" y2="0.5" gradientUnits="objectBoundingBox">
      <stop offset="0" stop-color="#d500f9"/>
      <stop offset="0.99" stop-color="#2979ff"/>
    </linearGradient>
    <linearGradient id="linear-gradient-5" y1="0.5" x2="1" y2="0.5" gradientUnits="objectBoundingBox">
      <stop offset="0" stop-color="#ea80fc"/>
      <stop offset="0.99" stop-color="#40c4ff"/>
    </linearGradient>
  </defs>
  <g id="组_2535" data-name="组 2535" transform="translate(-244.97 -554.19)">
    <g id="组_2438" data-name="组 2438" transform="translate(244.97 554.19)" style="isolation: isolate">
      <g id="组_2433" data-name="组 2433" transform="translate(25.632 21.615)">
        <path id="路径_1599" data-name="路径 1599" d="M318.667,566.087l7.48,18.848L266.558,655.9l-7.48-18.848Z" transform="translate(-259.078 -566.087)" fill="url(#linear-gradient)"/>
      </g>
      <g id="组_2434" data-name="组 2434" transform="translate(85.221 21.615)">
        <path id="路径_1600" data-name="路径 1600" d="M366.463,608.272l7.48,18.848-74.586-42.185-7.48-18.848Z" transform="translate(-291.876 -566.087)" fill="url(#linear-gradient)"/>
      </g>
      <g id="组_2435" data-name="组 2435" transform="translate(0 98.093)">
        <path id="路径_1601" data-name="路径 1601" d="M348.068,666.469l7.48,18.848-103.1-58.288-7.48-18.848Z" transform="translate(-244.97 -608.182)" fill="url(#linear-gradient)"/>
      </g>
      <g id="组_2436" data-name="组 2436" transform="translate(103.098 58.288)">
        <path id="路径_1602" data-name="路径 1602" d="M384.057,586.272l7.48,18.848L309.2,703.213l-7.48-18.848Z" transform="translate(-301.716 -586.272)" fill="url(#linear-gradient)"/>
      </g>
      <g id="组_2437" data-name="组 2437">
        <path id="路径_1603" data-name="路径 1603" d="M327.311,554.19l103.1,58.288-82.341,98.093-103.1-58.288Zm17.878,134.768,59.589-70.967-74.587-42.185L270.6,646.773l74.587,42.185" transform="translate(-244.97 -554.19)" fill="url(#linear-gradient-5)"/>
      </g>
    </g>
  </g>
</svg>
