<svg
        xmlns="http://www.w3.org/2000/svg"
        width="20.541"
        height="20.541"
        viewBox="0 0 20.541 20.541">
    <g id="组_2568"  transform="translate(0)">
        <path
                id="路径_1646"
                d="M306.943,241.608a4.09,4.09,0,0,1-3.136,1.2h-4a2.738,2.738,0,0,0-2.739,2.739v4a2.738,2.738,0,0,0,2.738,2.738h4a2.738,2.738,0,0,0,2.738-2.739v-4a4.109,4.109,0,0,1,4.333-4.334h4a2.737,2.737,0,0,0,2.738-2.738v-4a2.738,2.738,0,0,0-2.738-2.738h-4a2.738,2.738,0,0,0-2.739,2.738v4A4.089,4.089,0,0,1,306.943,241.608Z"
                transform="translate(-297.071 -231.737)"
                fill="#fff"
        />
        <path
                id="路径_1648"
                d="M4.778,0h0a4.778,4.778,0,1,1,0,9.557h0A4.778,4.778,0,0,1,4.778,0Z"
                transform="translate(0 0)"
                fill="#fff"
        />
        <path
                id="路径_1647"
                d="M4.956,2.781a1.473,1.473,0,0,1,2.559,0l3.321,5.824a1.473,1.473,0,0,1-1.28,2.2H2.915a1.473,1.473,0,0,1-1.28-2.2Z"
                transform="translate(9.51 9.734)"
                fill="#fff"
        />
    </g>
</svg>