<svg
        xmlns="http://www.w3.org/2000/svg"
        width="53.193"
        height="53.193"
        viewBox="0 0 53.193 53.193">
    <g id="组_2569"  transform="translate(0 0)">
        <g id="组_2568"  transform="translate(0 0)">
            <path
                    id="路径_1646"
                    d="M322.634,257.3a10.591,10.591,0,0,1-8.121,3.1h-10.35a7.091,7.091,0,0,0-7.092,7.092v10.35a7.091,7.091,0,0,0,7.09,7.09h10.352a7.091,7.091,0,0,0,7.09-7.092V267.49a10.641,10.641,0,0,1,11.221-11.222h10.35a7.087,7.087,0,0,0,7.09-7.09v-10.35a7.089,7.089,0,0,0-7.09-7.09h-10.35a7.092,7.092,0,0,0-7.092,7.09v10.35A10.588,10.588,0,0,1,322.634,257.3Z"
                    transform="translate(-297.071 -231.737)"
                    fill="#349ffb"
            />
            <path
                    id="路径_1648"
                    d="M12.374,0h0a12.374,12.374,0,1,1,0,24.748h0A12.374,12.374,0,0,1,12.374,0Z"
                    transform="translate(0 0)"
                    fill="#349ffb"
            />
            <path
                    id="路径_1647"
                    d="M10.545,3.963a3.814,3.814,0,0,1,6.627,0l8.6,15.082a3.814,3.814,0,0,1-3.313,5.7H5.259a3.814,3.814,0,0,1-3.313-5.7Z"
                    transform="translate(26.915 28.445)"
                    fill="#349ffb"
            />
        </g>
    </g>
</svg>