<svg xmlns="http://www.w3.org/2000/svg" width="19.797" height="19.797" viewBox="0 0 19.797 19.797">
  <path id="路径_318" data-name="路径 318" d="M83.042,73.143a9.9,9.9,0,1,1-9.9,9.9A9.928,9.928,0,0,1,83.042,73.143ZM80.979,77.1a1.9,1.9,0,0,0-1.485.495l-.247.082-.165.165c-1.237.742-.742,3.877,1.32,6.847,1.98,2.97,4.784,4.619,6.022,3.877a2.646,2.646,0,0,1,.412-.247,2.689,2.689,0,0,0,.99-.907,1.548,1.548,0,0,0-.495-1.65c-.825-.99-1.485-1.237-2.227-.907-.082.082-.247.082-.33.165l-.33.165c-.247.165-.99-.577-1.9-1.9s-1.237-2.227-1.072-2.392a1.209,1.209,0,0,1,.33-.165c.907-.577,1.072-1.237.33-2.557A1.778,1.778,0,0,0,80.979,77.1Z" transform="translate(-73.143 -73.143)" fill="#2699fb"/>
</svg>
