<svg xmlns="http://www.w3.org/2000/svg" width="40.858" height="40.858" viewBox="0 0 40.858 40.858">
  <path id="路径_470" data-name="路径 470" d="M20.429,0A20.429,20.429,0,1,0,40.858,20.429,20.489,20.489,0,0,0,20.429,0Zm4.426,15.458a2.179,2.179,0,0,1,4.358,0v2.928a2.179,2.179,0,0,1-4.358,0V15.458Zm-13.143,0a2.179,2.179,0,1,1,4.358,0v2.928a2.179,2.179,0,0,1-4.358,0V15.458Zm19.2,11.781a13.165,13.165,0,0,1-20.769.068,1.457,1.457,0,1,1,2.315-1.77A10.165,10.165,0,0,0,28.6,25.468a1.457,1.457,0,0,1,2.315,1.771Z" fill="#6dd2c3"/>
</svg>
