<svg xmlns="http://www.w3.org/2000/svg" width="21.081" height="26" viewBox="0 0 21.081 26">
  <path id="路径_1657" data-name="路径 1657" d="M117.719,1.233a1.253,1.253,0,0,1-1.273,1.233H98.157a1.254,1.254,0,0,1-1.273-1.233A1.254,1.254,0,0,1,98.157,0h18.289a1.254,1.254,0,0,1,1.273,1.233ZM107.4,5.82a1.254,1.254,0,0,0-1.273,1.233V24.767a1.274,1.274,0,0,0,2.547,0V7.052A1.253,1.253,0,0,0,107.4,5.82Zm.9-.91a1.259,1.259,0,0,0-1.737-.062l-9.378,9.084a1.166,1.166,0,0,0,.063,1.682,1.259,1.259,0,0,0,1.737.061l9.378-9.083a1.166,1.166,0,0,0-.063-1.682Zm-1.807,0a1.166,1.166,0,0,0-.063,1.682l9.378,9.083a1.259,1.259,0,0,0,1.737-.061,1.166,1.166,0,0,0,.063-1.682l-9.378-9.084a1.259,1.259,0,0,0-1.737.062Z" transform="translate(-96.863)" fill="#2699fb"/>
</svg>
